<svg xmlns="http://www.w3.org/2000/svg" width="1600" height="900" viewBox="0 0 1600 900"><defs><linearGradient id="bg" x1="0" y1="0" x2="1" y2="1"><stop stop-color="#05172b"/><stop offset=".5" stop-color="#0a4273"/><stop offset="1" stop-color="#0f72b9"/></linearGradient><radialGradient id="glow"><stop stop-color="#77d5ff" stop-opacity=".72"/><stop offset="1" stop-color="#77d5ff" stop-opacity="0"/></radialGradient><linearGradient id="surf" x1="0" y1="0" x2="1" y2="0"><stop stop-color="#08223c"/><stop offset=".55" stop-color="#0c497b"/><stop offset="1" stop-color="#1785cb"/></linearGradient><filter id="blur"><feGaussianBlur stdDeviation="18"/></filter></defs><rect width="1600" height="900" fill="url(#bg)"/><circle cx="1250" cy="280" r="420" fill="url(#glow)" opacity=".45"/><path d="M490 715 C760 620 1035 585 1600 520 L1600 900 410 900Z" fill="url(#surf)"/><g opacity=".42" stroke="#8cddff" stroke-width="2" fill="none"><path d="M815 580 C850 500 900 660 940 450 S1010 650 1046 390 1120 635 1154 430 1225 590 1272 300 1335 610 1390 390 1450 580 1500 240"/><path d="M760 640 C840 580 900 570 970 585 S1100 640 1200 565 1380 485 1540 540" opacity=".5"/></g><g fill="#9ae4ff" fill-opacity=".9" stroke="#dff8ff" stroke-opacity=".75"><circle cx="1000" cy="520" r="21"/><circle cx="1080" cy="596" r="14"/><circle cx="1142" cy="460" r="17"/><circle cx="1215" cy="570" r="24"/><circle cx="1310" cy="485" r="13"/><circle cx="1376" cy="548" r="20"/><circle cx="1460" cy="424" r="15"/></g><g fill="none" stroke="#bdeeff" stroke-width="3" opacity=".86"><circle cx="1082" cy="295" r="28"/><circle cx="1130" cy="225" r="17"/><circle cx="1185" cy="332" r="13"/><circle cx="1240" cy="255" r="10"/><circle cx="1297" cy="370" r="18"/><circle cx="1395" cy="290" r="9"/></g><g fill="#0b2138" stroke="#4ea6e5" stroke-width="3"><circle cx="820" cy="700" r="32"/><circle cx="920" cy="676" r="26"/><circle cx="1020" cy="648" r="29"/><circle cx="1128" cy="620" r="34"/><circle cx="1242" cy="600" r="29"/><circle cx="1355" cy="574" r="35"/><circle cx="1470" cy="550" r="28"/></g><g fill="#72c9ff" opacity=".16" filter="url(#blur)"><circle cx="1260" cy="210" r="110"/><circle cx="1440" cy="410" r="80"/></g><g opacity=".16" stroke="#e4f6ff"><path d="M620 0V900M770 0V900M920 0V900M1070 0V900M1220 0V900M1370 0V900M1520 0V900"/><path d="M0 150H1600M0 300H1600M0 450H1600M0 600H1600M0 750H1600"/></g></svg>